<?xml version="1.0" encoding="UTF-8" standalone="no" ?>
<!DOCTYPE svg PUBLIC "-//W3C//DTD SVG 1.1//EN" "http://www.w3.org/Graphics/SVG/1.1/DTD/svg11.dtd">
<svg xmlns="http://www.w3.org/2000/svg" xmlns:xlink="http://www.w3.org/1999/xlink" version="1.1" width="640" height="640" viewBox="0 0 640 640" xml:space="preserve">
<desc>Created with Fabric.js 4.6.0</desc>
<defs>
</defs>
<g transform="matrix(0.71 -0.71 0.71 0.71 315.95 390.46)" id="0c9jrnc3MFXRxOsuVaW52"  >
<path style="stroke: rgb(196,33,91); stroke-width: 0; stroke-dasharray: none; stroke-linecap: butt; stroke-dashoffset: 0; stroke-linejoin: miter; stroke-miterlimit: 4; fill: rgb(57,57,57); fill-rule: nonzero; opacity: 1;" vector-effect="non-scaling-stroke"  transform=" translate(-120.71, -120.71)" d="M 0 0 L 241.41772 0 L 241.41772 241.41772 L 0 241.41772 z" stroke-linecap="round" />
</g>
<g transform="matrix(0.71 -0.71 0.71 0.71 315.95 338.29)" id="bj01tcFNklrlWG7b59Ssz"  >
<path style="stroke: rgb(196,33,91); stroke-width: 0; stroke-dasharray: none; stroke-linecap: butt; stroke-dashoffset: 0; stroke-linejoin: miter; stroke-miterlimit: 4; fill: rgb(112,112,112); fill-rule: nonzero; opacity: 1;" vector-effect="non-scaling-stroke"  transform=" translate(-120.71, -120.71)" d="M 0 0 L 241.41772 0 L 241.41772 241.41772 L 0 241.41772 z" stroke-linecap="round" />
</g>
<g transform="matrix(0.71 -0.71 0.71 0.71 302.99 261.73)" id="lpwI3m1uTYQ2HuqOhNzWV"  >
<path style="stroke: rgb(196,33,91); stroke-width: 0; stroke-dasharray: none; stroke-linecap: butt; stroke-dashoffset: 0; stroke-linejoin: miter; stroke-miterlimit: 4; fill: rgb(205,205,205); fill-rule: nonzero; opacity: 1;" vector-effect="non-scaling-stroke"  transform=" translate(-120.71, -120.71)" d="M 0 0 L 241.41772 0 L 241.41772 241.41772 L 0 241.41772 z" stroke-linecap="round" />
</g>
<g transform="matrix(0.71 -0.71 0.71 0.71 302.99 264.73)" id="lpwI3m1uTYQ2HuqOhNzWV"  >
<path style="stroke: rgb(196,33,91); stroke-width: 0; stroke-dasharray: none; stroke-linecap: butt; stroke-dashoffset: 0; stroke-linejoin: miter; stroke-miterlimit: 4; fill: rgb(205,205,205); fill-rule: nonzero; opacity: 1;" vector-effect="non-scaling-stroke"  transform=" translate(-120.71, -120.71)" d="M 0 0 L 241.41772 0 L 241.41772 241.41772 L 0 241.41772 z" stroke-linecap="round" />
</g>
</svg>